<svg xmlns="http://www.w3.org/2000/svg" width="256" height="256"><g stroke-width="0" stroke-miterlimit="10" fill="#000"><path d="M220.778 191.441c-10.715 0-19.434-8.72-19.434-19.434s8.72-19.434 19.434-19.434c10.717 0 19.436 8.72 19.436 19.434s-8.716 19.434-19.436 19.434zm0-30.438c-6.067 0-11.004 4.938-11.004 11.004s4.937 11.004 11.004 11.004c6.07 0 11.006-4.937 11.006-11.004s-4.934-11.004-11.006-11.004zM34.615 191.441c-10.714 0-19.434-8.72-19.434-19.434s8.72-19.434 19.434-19.434c10.718 0 19.437 8.72 19.437 19.434s-8.72 19.434-19.437 19.434zm0-30.438c-6.067 0-11.004 4.938-11.004 11.004s4.937 11.004 11.004 11.004c6.07 0 11.007-4.937 11.007-11.004s-4.937-11.004-11.007-11.004z"/><path d="M220.78 177.622c-1.514 0-2.92-.59-3.99-1.658a5.577 5.577 0 01-1.63-3.962c0-1.464.593-2.923 1.63-3.962 2.108-2.108 5.845-2.108 7.953 0a5.641 5.641 0 011.657 3.962c0 1.517-.59 2.922-1.657 3.962a5.129 5.129 0 01-.843.73c-.31.197-.644.366-.984.506s-.674.253-1.04.31a4.807 4.807 0 01-1.096.112zM34.62 177.622a5.477 5.477 0 01-3.961-1.658 5.292 5.292 0 01-1.237-1.801 5.592 5.592 0 01-.421-2.164c0-.365.028-.73.112-1.099.056-.365.169-.702.31-1.037.14-.337.308-.674.533-.986.197-.306.422-.59.703-.843 2.08-2.108 5.816-2.108 7.924 0 .253.253.506.534.702.843a6.4 6.4 0 01.506.986c.14.335.253.672.337 1.037.057.368.113.734.113 1.099 0 1.517-.59 2.922-1.658 3.962a5.516 5.516 0 01-3.962 1.66zM80.96 191.441c-10.714 0-19.433-8.72-19.433-19.434s8.719-19.434 19.434-19.434 19.433 8.72 19.433 19.434-8.716 19.434-19.433 19.434zm0-30.438c-6.066 0-11.003 4.938-11.003 11.004s4.937 11.004 11.004 11.004 11.003-4.937 11.003-11.004-4.937-11.004-11.003-11.004z"/><path d="M80.958 177.622c-.73 0-1.462-.14-2.136-.422-.702-.28-1.293-.702-1.826-1.233a5.477 5.477 0 01-1.658-3.962c0-.366.028-.731.112-1.1.084-.365.169-.702.31-1.036.14-.337.336-.674.533-.986.197-.307.422-.59.703-.843 2.079-2.108 5.844-2.108 7.952 0 .253.252.478.533.674.843.225.309.394.646.534.986.14.334.253.671.31 1.037.084.368.112.733.112 1.099 0 1.517-.59 2.922-1.63 3.962a5.672 5.672 0 01-1.827 1.233 5.706 5.706 0 01-2.163.422z"/><path d="M243.505 119.798l-39.011-3.167-16.082-36.103a10.97 10.97 0 00-10.01-6.5h-15.257l-2.36-1.04c-13.138-5.785-27.075-8.719-41.431-8.719a4.213 4.213 0 00-4.215 4.215v74.426H11.146c-5.37 0-9.74 4.37-9.74 9.74v9.722a13.811 13.811 0 008.369 12.732 25.022 25.022 0 01-.214-3.097c0-13.814 11.24-25.054 25.054-25.054 10.453 0 19.423 6.44 23.174 15.557 3.752-9.116 12.718-15.557 23.172-15.557 13.816 0 25.053 11.24 25.053 25.054 0 1.439-.148 2.841-.382 4.215h90.477c-.234-1.374-.382-2.776-.382-4.215 0-13.814 11.24-25.054 25.053-25.054 13.817 0 25.057 11.24 25.057 25.054 0 1.245-.12 2.462-.298 3.659 5.058-1.574 8.768-6.244 8.768-11.816v-32.214c0-6.148-4.614-11.234-10.802-11.838zm-89.58-10.288c0 3.808-3.097 6.901-6.904 6.901h-5.044c-3.808 0-6.904-3.096-6.904-6.9V89.36c0-3.808 3.096-6.902 6.904-6.902h5.044c3.807 0 6.904 3.097 6.904 6.902v20.15zm12.805 6.904a.256.256 0 01-.256-.253V82.458h11.929c.995 0 1.902.588 2.307 1.5l14.46 32.456h-28.44z"/></g></svg>