<svg xmlns="http://www.w3.org/2000/svg" width="256" height="256"><g stroke-width="0" stroke-miterlimit="10" fill="#000"><path d="M103.502 168.13c-15.362 0-27.86-12.5-27.86-27.862s12.498-27.858 27.86-27.858c15.363 0 27.861 12.496 27.861 27.858s-12.496 27.862-27.86 27.862zm0-47.29c-10.714 0-19.43 8.717-19.43 19.428s8.716 19.432 19.43 19.432c10.715 0 19.431-8.72 19.431-19.432s-8.716-19.428-19.43-19.428z"/><path d="M103.494 151.517c-.705 0-1.444-.065-2.183-.225-.709-.16-1.414-.351-2.088-.643-.708-.29-1.35-.641-1.962-1.026a11.944 11.944 0 01-3.113-3.116 13.86 13.86 0 01-1.029-1.925c-.29-.706-.48-1.414-.64-2.119-.13-.736-.225-1.447-.225-2.183 0-2.954 1.222-5.879 3.307-7.967 2.602-2.599 6.489-3.819 10.15-3.082.705.163 1.413.385 2.088.643.674.29 1.349.644 1.958 1.06.61.385 1.189.868 1.703 1.38 2.088 2.087 3.274 5.01 3.274 7.966 0 .736-.062 1.447-.225 2.183-.13.705-.354 1.413-.64 2.119a9.34 9.34 0 01-1.029 1.925 10.027 10.027 0 01-1.38 1.702c-2.09 2.088-5.013 3.308-7.966 3.308zM250.092 144.483h-48.706c-2.327 0-4.215-1.888-4.215-4.215s1.888-4.215 4.215-4.215h44.49v-8.668a4.216 4.216 0 018.43 0v12.883a4.217 4.217 0 01-4.214 4.215z"/><path d="M189.03 87.584H17.98c-9.138 0-16.573 7.435-16.573 16.573v23.756c0 9.138 7.435 16.57 16.573 16.57h52.339c-.174-1.382-.295-2.784-.295-4.215 0-18.459 15.02-33.478 33.481-33.478s33.481 15.02 33.481 33.478c0 1.43-.12 2.833-.295 4.215h64.698a4.217 4.217 0 004.215-4.215v-36.11c-.003-9.14-7.438-16.574-16.574-16.574z"/><path d="M103.502 168.13c-15.362 0-27.86-12.5-27.86-27.862s12.498-27.858 27.86-27.858c15.363 0 27.861 12.496 27.861 27.858s-12.496 27.862-27.86 27.862zm0-47.29c-10.714 0-19.43 8.717-19.43 19.428s8.716 19.432 19.43 19.432c10.715 0 19.431-8.72 19.431-19.432s-8.716-19.428-19.43-19.428z"/><path d="M103.494 151.517c-.705 0-1.444-.065-2.183-.225-.709-.16-1.414-.351-2.088-.643-.708-.29-1.35-.641-1.962-1.026a11.944 11.944 0 01-3.113-3.116 13.86 13.86 0 01-1.029-1.925c-.29-.706-.48-1.414-.64-2.119-.13-.736-.225-1.447-.225-2.183 0-2.954 1.222-5.879 3.307-7.967 2.602-2.599 6.489-3.819 10.15-3.082.705.163 1.413.385 2.088.643.674.29 1.349.644 1.958 1.06.61.385 1.189.868 1.703 1.38 2.088 2.087 3.274 5.01 3.274 7.966 0 .736-.062 1.447-.225 2.183-.13.705-.354 1.413-.64 2.119a9.34 9.34 0 01-1.029 1.925 10.027 10.027 0 01-1.38 1.702c-2.09 2.088-5.013 3.308-7.966 3.308zM250.092 144.483h-48.706c-2.327 0-4.215-1.888-4.215-4.215s1.888-4.215 4.215-4.215h44.49v-8.668a4.216 4.216 0 018.43 0v12.883a4.217 4.217 0 01-4.214 4.215z"/><path d="M189.03 87.584H17.98c-9.138 0-16.573 7.435-16.573 16.573v23.756c0 9.138 7.435 16.57 16.573 16.57h52.339c-.174-1.382-.295-2.784-.295-4.215 0-18.459 15.02-33.478 33.481-33.478s33.481 15.02 33.481 33.478c0 1.43-.12 2.833-.295 4.215h64.698a4.217 4.217 0 004.215-4.215v-36.11c-.003-9.14-7.438-16.574-16.574-16.574z"/></g></svg>