<svg xmlns="http://www.w3.org/2000/svg" width="256" height="256"><g stroke-width="0" stroke-miterlimit="10" fill="#000"><path d="M212.435 174.994c-13.098 0-23.753-10.655-23.753-23.753s10.655-23.753 23.753-23.753 23.753 10.656 23.753 23.753-10.656 23.753-23.753 23.753zm0-39.076c-8.45 0-15.323 6.874-15.323 15.323s6.873 15.323 15.323 15.323 15.323-6.873 15.323-15.323-6.876-15.323-15.323-15.323zM51.478 174.994c-13.097 0-23.753-10.655-23.753-23.753s10.656-23.753 23.753-23.753 23.753 10.656 23.753 23.753-10.656 23.753-23.753 23.753zm0-39.076c-8.447 0-15.323 6.874-15.323 15.323s6.873 15.323 15.323 15.323 15.323-6.873 15.323-15.323-6.873-15.323-15.323-15.323z"/><path d="M212.438 159.663a8.459 8.459 0 01-5.958-2.473 7.806 7.806 0 01-1.067-1.262 9.018 9.018 0 01-.76-1.464 6.231 6.231 0 01-.477-1.573 8.33 8.33 0 01-.171-1.66c0-.532.059-1.097.171-1.628.082-.562.253-1.07.478-1.602.194-.505.478-.986.759-1.433.309-.477.674-.899 1.067-1.292.366-.396.815-.734 1.265-1.04.478-.309.955-.562 1.464-.787a10.073 10.073 0 011.574-.477 8.236 8.236 0 013.315 0c.534.112 1.04.28 1.577.477.506.225.983.478 1.433.787.478.306.899.644 1.292 1.04.394.393.731.815 1.04 1.292.31.447.562.928.787 1.433.194.532.365 1.04.478 1.602.112.531.168 1.096.168 1.627 0 .562-.056 1.099-.168 1.66a10.581 10.581 0 01-.478 1.574c-.225.506-.478.984-.787 1.464-.309.447-.646.897-1.04 1.262a7.64 7.64 0 01-1.292 1.068c-.45.284-.927.562-1.433.761-.534.225-1.04.394-1.577.478a8.553 8.553 0 01-1.66.166zM51.48 159.663a8.299 8.299 0 01-1.657-.169c-.534-.112-1.068-.253-1.574-.477-.506-.197-.983-.478-1.46-.762a8.718 8.718 0 01-1.265-1.068 8.47 8.47 0 01-2.473-5.957c0-.53.056-1.096.168-1.627.113-.534.253-1.07.478-1.576.197-.531.478-1.012.759-1.461.309-.478.674-.9 1.068-1.293a8.515 8.515 0 011.264-1.04c.478-.309.955-.562 1.461-.787.506-.196 1.04-.365 1.574-.477a8.098 8.098 0 013.288 0c.562.112 1.067.28 1.601.477.506.225.984.478 1.433.787.478.307.9.644 1.293 1.04.393.393.73.815 1.04 1.293.309.446.562.927.786 1.46.197.507.366 1.04.478 1.577.113.531.169 1.096.169 1.627 0 2.22-.9 4.412-2.473 5.957a7.64 7.64 0 01-1.293 1.068c-.45.284-.927.562-1.433.762-.506.224-1.04.365-1.601.477a7.83 7.83 0 01-1.63.169z"/><path d="M225.53 116.243l-41.322-10.597-19.695-11.428a100.079 100.079 0 00-50.164-13.502H84.625c-19.176 0-37.494 7.168-51.578 20.184a10.864 10.864 0 01-7.401 2.895h-6.29c-7.637 0-14.086 5.718-15.002 13.302l-2.846 23.64a13.903 13.903 0 009.09 14.787l12.923 4.693a29.276 29.276 0 01-1.416-8.978c0-16.197 13.176-29.373 29.373-29.373s29.373 13.176 29.373 29.373c0 4.442-1.02 8.64-2.793 12.42h107.797c-1.773-3.78-2.793-7.978-2.793-12.42 0-16.197 13.176-29.373 29.373-29.373s29.373 13.176 29.373 29.373c0 3.875-.773 7.567-2.142 10.956l8.192-1.31a7.621 7.621 0 006.449-7.559c0-17.486-11.836-32.736-28.778-37.083zM77.1 111.457c-3.673 0-7.003-1.714-9.136-4.7-2.135-2.988-2.678-6.694-1.486-10.167l1.843-5.384c5.291-1.313 10.748-2.057 16.307-2.057h6.46l9.458 22.308H77.1zm82.673 0H109.7l-9.458-22.308h14.106a91.628 91.628 0 0145.932 12.361l12.876 7.469c-4.288 1.613-8.77 2.478-13.384 2.478z"/></g></svg>