<svg xmlns="http://www.w3.org/2000/svg" width="256" height="256"><g stroke-width="0" stroke-miterlimit="10" fill="#000"><path d="M201.88 176.073c-13.37 0-24.244-10.874-24.244-24.241 0-13.37 10.874-24.245 24.244-24.245s24.245 10.875 24.245 24.245c0 13.367-10.875 24.241-24.245 24.241zm0-40.056c-8.722 0-15.814 7.092-15.814 15.815 0 8.719 7.092 15.811 15.814 15.811s15.815-7.092 15.815-15.811c0-8.72-7.095-15.815-15.815-15.815zM50.919 176.073c-13.367 0-24.245-10.874-24.245-24.241 0-13.37 10.878-24.245 24.245-24.245s24.242 10.875 24.242 24.245c0 13.367-10.875 24.241-24.242 24.241zm0-40.056c-8.72 0-15.815 7.092-15.815 15.815 0 8.719 7.095 15.811 15.815 15.811s15.812-7.092 15.812-15.811c0-8.72-7.093-15.815-15.812-15.815z"/><path d="M201.872 160.256a8.03 8.03 0 01-1.63-.172 7.3 7.3 0 01-1.573-.477c-.534-.197-1.012-.478-1.464-.759-.478-.309-.9-.674-1.293-1.07-1.574-1.546-2.473-3.738-2.473-5.955 0-2.22.9-4.386 2.473-5.957 3.147-3.12 8.767-3.147 11.914 0a8.47 8.47 0 012.473 5.957c0 2.217-.899 4.384-2.473 5.954a8.446 8.446 0 01-5.954 2.479zM50.919 160.256c-2.22 0-4.384-.9-5.957-2.476-.394-.365-.731-.815-1.04-1.261-.31-.478-.59-.959-.787-1.464-.225-.506-.365-1.04-.478-1.574a8.32 8.32 0 01-.168-1.658c0-2.22.899-4.386 2.473-5.957 1.967-1.967 4.86-2.87 7.615-2.304.534.112 1.067.28 1.573.477.506.225.984.478 1.461.787.45.306.872.644 1.265 1.04.393.393.759.815 1.04 1.292.309.45.562.928.786 1.462.197.505.366 1.04.478 1.576a8.134 8.134 0 010 3.288 10.26 10.26 0 01-.478 1.573c-.224.506-.477.987-.786 1.464-.31.447-.647.897-1.04 1.262a7.792 7.792 0 01-1.293 1.07c-.45.282-.927.56-1.433.76a6.348 6.348 0 01-1.573.477 8.727 8.727 0 01-1.658.166z"/><path d="M237.952 119.792l-64.52-14.635-33.897-19.67a43.364 43.364 0 00-21.733-5.85H51.683c-13.336 0-25.723 6.002-33.987 16.47l-9.464 11.987a23.515 23.515 0 00-5.01 12.875l-1.773 23.908a14 14 0 0010.678 14.68l10.821 2.635c-1.203-3.234-1.891-6.713-1.891-10.36 0-16.467 13.398-29.865 29.865-29.865 16.466 0 29.861 13.398 29.861 29.865 0 4.515-1.036 8.78-2.838 12.622h96.912c-1.802-3.841-2.838-8.107-2.838-12.622 0-16.467 13.398-29.865 29.864-29.865s29.865 13.398 29.865 29.865c0 4.125-.843 8.059-2.363 11.636l13.055-1.417a13.286 13.286 0 0011.867-13.226v-8.551c0-9.874-6.728-18.296-16.355-20.482zm-179.18-8.64c-2.896 0-5.507-1.364-7.168-3.738-1.657-2.375-2.037-5.297-1.04-8.017l4.16-11.327h41.45l2.338 23.081h-39.74zm86.453 0h-38.241l-2.338-23.085h13.15c6.14 0 12.19 1.63 17.504 4.71l26.957 15.64a54.459 54.459 0 01-17.032 2.734z"/></g></svg>