<svg xmlns="http://www.w3.org/2000/svg" width="256" height="256"><g stroke-width="0" stroke-miterlimit="10" fill="#000"><path d="M207.292 187.53c-14.57 0-26.42-11.853-26.42-26.42s11.853-26.42 26.42-26.42 26.42 11.853 26.42 26.42-11.852 26.42-26.42 26.42zm0-44.41c-9.919 0-17.99 8.07-17.99 17.99s8.071 17.99 17.99 17.99 17.99-8.07 17.99-17.99-8.07-17.99-17.99-17.99zM44.374 187.53c-14.57 0-26.42-11.853-26.42-26.42s11.853-26.42 26.42-26.42 26.42 11.853 26.42 26.42-11.85 26.42-26.42 26.42zm0-44.41c-9.919 0-17.99 8.07-17.99 17.99s8.071 17.99 17.99 17.99 17.99-8.07 17.99-17.99-8.07-17.99-17.99-17.99z"/><path d="M207.295 170.934c-.657 0-1.31-.068-1.933-.2a7.342 7.342 0 01-1.835-.556 9.365 9.365 0 01-1.706-.882 10.844 10.844 0 01-1.475-1.214 9.966 9.966 0 01-2.886-6.983c0-.624.068-1.281.2-1.902.132-.624.295-1.245.556-1.838.228-.59.557-1.178.883-1.703a9.385 9.385 0 011.244-1.509c.43-.46.95-.851 1.476-1.214a11.78 11.78 0 011.705-.919c.59-.227 1.214-.427 1.835-.556 3.215-.621 6.59.427 8.885 2.689.461.458.852.95 1.214 1.509.363.525.658 1.113.92 1.703.227.593.426 1.214.556 1.838.132.62.193 1.278.193 1.902 0 2.59-1.048 5.111-2.885 6.983-.458.427-.95.851-1.51 1.214a8 8 0 01-1.671.882c-.624.261-1.214.46-1.869.556-.618.132-1.273.2-1.897.2zM44.371 170.934a9.882 9.882 0 01-6.949-2.886c-.458-.43-.854-.95-1.214-1.475a10.346 10.346 0 01-.916-1.706c-.23-.59-.427-1.214-.559-1.835a9.58 9.58 0 01-.194-1.933 9.925 9.925 0 012.886-6.95c.458-.46.95-.85 1.51-1.213a10.151 10.151 0 011.671-.919c.59-.228 1.214-.427 1.869-.556 3.178-.621 6.59.427 8.851 2.689a9.887 9.887 0 012.886 6.949c0 .657-.065 1.31-.197 1.933-.132.621-.295 1.245-.556 1.835-.23.593-.56 1.18-.885 1.706a9.003 9.003 0 01-1.248 1.475c-.458.458-.95.882-1.475 1.245a9.11 9.11 0 01-1.706.882c-.59.262-1.214.461-1.835.557a9.508 9.508 0 01-1.939.202z"/><path d="M216.029 108.588l-20.614-5.33-13.36-11.603a95.809 95.809 0 00-62.814-23.472H69.92c-.062 0-.12.009-.183.009-.047.003-.092.003-.14.005-8.385.085-16.267 3.364-22.222 9.285l-23.553 23.413c-10.403 10.343-17.284 23.44-19.903 37.876l-2.296 12.667c-.99 5.46 1.526 11.069 6.263 13.963l5.393 3.293c-.596-2.436-.944-4.965-.944-7.581 0-17.667 14.373-32.04 32.04-32.04s32.039 14.373 32.039 32.04c0 4.842-1.11 9.42-3.043 13.539h104.922c-1.93-4.12-3.043-8.697-3.043-13.54 0-17.666 14.373-32.039 32.04-32.039s32.04 14.373 32.04 32.04c0 4.274-.858 8.346-2.38 12.075l5.127-.818c7.087-1.135 12.23-7.163 12.23-14.337 0-23.28-15.742-43.614-38.278-49.445zm-145.555-5.715a4.76 4.76 0 01-3.929-2.032 4.76 4.76 0 01-.612-4.38l6.974-19.85h32.515l3.712 26.262h-38.66zm47.171 0l-3.712-26.262h5.305a87.39 87.39 0 0157.29 21.403l5.593 4.859h-64.476z"/></g></svg>