<svg xmlns="http://www.w3.org/2000/svg" width="256" height="256"><g stroke-width="0" stroke-miterlimit="10" fill="#000"><path d="M208.75 190.157c-11.883 0-21.549-9.666-21.549-21.55s9.666-21.547 21.55-21.547 21.55 9.664 21.55 21.547-9.667 21.55-21.55 21.55zm0-34.667c-7.232 0-13.119 5.884-13.119 13.117s5.887 13.12 13.12 13.12 13.12-5.887 13.12-13.12-5.887-13.117-13.12-13.117zM58.093 190.157c-11.884 0-21.55-9.666-21.55-21.55s9.666-21.547 21.55-21.547 21.547 9.664 21.547 21.547-9.667 21.55-21.547 21.55zm0-34.667c-7.236 0-13.12 5.884-13.12 13.117s5.884 13.12 13.12 13.12c7.233 0 13.117-5.887 13.117-13.12s-5.884-13.117-13.117-13.117z"/><path d="M208.756 175.627c-.45 0-.927-.06-1.376-.14-.45-.085-.9-.226-1.321-.397a7.494 7.494 0 01-1.211-.644 5.276 5.276 0 01-1.068-.874 6.187 6.187 0 01-.871-1.067 7.162 7.162 0 01-.646-1.209 7.435 7.435 0 01-.394-1.32c-.112-.45-.14-.928-.14-1.377 0-1.855.73-3.653 2.048-4.977.31-.306.675-.618 1.068-.87.368-.254.787-.45 1.211-.647a7.299 7.299 0 011.32-.394 7.56 7.56 0 012.755 0 6.93 6.93 0 011.292.394c.447.197.843.396 1.234.646.365.253.73.562 1.068.871.309.337.59.703.873 1.068.253.396.45.787.644 1.236.171.422.31.843.396 1.293.082.45.14.927.14 1.377 0 1.855-.76 3.653-2.05 4.974-1.319 1.295-3.148 2.057-4.972 2.057zM58.084 175.627c-.45 0-.899-.06-1.377-.14a6.674 6.674 0 01-1.292-.397 6.37 6.37 0 01-1.209-.644 6.424 6.424 0 01-1.067-.874 8.035 8.035 0 01-.9-1.067 7.006 7.006 0 01-.618-1.209 5.603 5.603 0 01-.421-1.32c-.085-.45-.14-.928-.14-1.377s.055-.928.14-1.377c.084-.45.225-.871.421-1.293.169-.45.366-.843.618-1.236.281-.365.562-.73.9-1.068.309-.306.674-.618 1.067-.871.366-.253.787-.45 1.209-.646a7.08 7.08 0 011.292-.394c2.305-.45 4.721.281 6.351 1.911.337.337.618.703.871 1.068.253.396.478.787.646 1.236.169.422.31.843.394 1.293.112.45.14.927.14 1.377s-.028.927-.14 1.377a7.275 7.275 0 01-.394 1.32 7.271 7.271 0 01-.646 1.209c-.253.396-.534.73-.871 1.067a7.113 7.113 0 01-4.974 2.055z"/><path d="M254.307 126.381c0-.073-.017-.137-.023-.208-.441-25.028-10.127-60.614-35.777-60.614h-47.739a4.215 4.215 0 00-4.215 4.215v52.395H13.417c-6.624-.003-12.01 5.384-12.01 12.004v23.464a15.14 15.14 0 004.476 10.788 15.139 15.139 0 0010.765 4.453h.037l14.603-.033c-.219-1.386-.365-2.793-.365-4.238 0-14.98 12.187-27.167 27.17-27.167 14.98 0 27.167 12.187 27.167 27.167 0 1.436-.146 2.838-.36 4.215h97.043c-.216-1.377-.36-2.779-.36-4.215 0-14.98 12.19-27.167 27.17-27.167s27.17 12.187 27.17 27.167c0 1.453-.146 2.866-.368 4.257l5.182.023c7.483 0 13.572-6.09 13.572-13.572V127.96c0-.464-.01-.942-.016-1.414 0-.056.014-.11.014-.166zm-52.303-4.215v-48.18h16.506c17.298 0 25.869 26.501 27.184 48.18h-43.69z"/></g></svg>