<svg xmlns="http://www.w3.org/2000/svg" width="256" height="256"><g stroke-width="0" stroke-miterlimit="10" fill="#000"><path d="M213.786 180.687c-11.914 0-21.609-9.691-21.609-21.606s9.695-21.609 21.61-21.609 21.605 9.695 21.605 21.61-9.691 21.605-21.606 21.605zm0-34.787c-7.266 0-13.179 5.912-13.179 13.179s5.913 13.176 13.18 13.176 13.175-5.913 13.175-13.176-5.909-13.18-13.176-13.18zM60.571 180.687c-11.914 0-21.609-9.691-21.609-21.606s9.695-21.609 21.61-21.609 21.608 9.695 21.608 21.61-9.694 21.605-21.609 21.605zm0-34.787c-7.267 0-13.179 5.912-13.179 13.179s5.912 13.176 13.18 13.176 13.178-5.913 13.178-13.176-5.912-13.18-13.179-13.18z"/><path d="M213.786 166.098c-1.854 0-3.653-.759-4.976-2.049a7.16 7.16 0 01-2.049-4.976c0-1.852.76-3.653 2.049-4.974.337-.309.674-.618 1.068-.87a6.803 6.803 0 012.531-1.04 7.423 7.423 0 012.751 0c.45.08.9.224 1.324.393.419.168.815.393 1.208.646.366.253.73.56 1.068.871.31.337.618.703.874 1.068.253.393.447.787.643 1.208.17.453.31.874.394 1.324.081.45.14.927.14 1.374 0 1.854-.761 3.656-2.05 4.976-.338.31-.703.619-1.069.871a6.966 6.966 0 01-1.208.647c-.422.168-.874.309-1.324.393-.446.113-.924.138-1.374.138zM60.585 166.098a7.12 7.12 0 01-4.974-2.049 7.042 7.042 0 01-2.05-4.976c0-1.852.73-3.653 2.05-4.974 2.586-2.585 7.306-2.613 9.92 0a7.04 7.04 0 012.051 4.974c0 1.854-.73 3.656-2.051 4.976a7.092 7.092 0 01-4.946 2.049z"/><path d="M243.966 112.848l-49.35-15.542-24.146-14.008a61.301 61.301 0 00-30.736-8.272H38.08c-7.764 0-15.056 4.145-19.032 10.815L3.455 112.02a14.537 14.537 0 00-2.048 7.441v29.407a14.495 14.495 0 0011.155 14.143l22.45 5.37a27.015 27.015 0 01-1.67-9.299c0-15.016 12.215-27.229 27.23-27.229S87.8 144.067 87.8 159.082c0 4.119-.947 8.013-2.59 11.518h103.938c-1.644-3.505-2.59-7.4-2.59-11.519 0-15.016 12.215-27.229 27.228-27.229 15.014 0 27.226 12.215 27.226 27.23 0 3.63-.727 7.089-2.023 10.259l2.557-.352c7.273-1.006 12.758-7.3 12.758-14.64v-27.4a14.718 14.718 0 00-10.338-14.1zm-170.435-.053H41.966c-1.854 0-2.807-1.222-3.133-1.748-.323-.525-.99-1.925-.16-3.583l12.021-24.008h31.573l-8.736 29.339zm8.795 0l8.736-29.34h31.7l6.07 29.34H82.326zm102.14-8.093a22.531 22.531 0 01-17.323 8.093h-29.701l-6.07-29.34h8.365a52.863 52.863 0 0126.507 7.135l20.22 11.732-1.997 2.38z"/></g></svg>