<svg xmlns="http://www.w3.org/2000/svg" width="256" height="256"><g stroke-width="0" stroke-miterlimit="10" fill="#000"><path d="M210.302 183.826c-13.541 0-24.56-11.018-24.56-24.56 0-13.543 11.019-24.561 24.56-24.561s24.56 11.018 24.56 24.562c0 13.541-11.019 24.56-24.56 24.56zm0-40.691c-8.894 0-16.13 7.235-16.13 16.132 0 8.893 7.236 16.13 16.13 16.13s16.13-7.237 16.13-16.13c0-8.897-7.236-16.132-16.13-16.132zM62.597 183.826c-13.544 0-24.562-11.018-24.562-24.56 0-13.543 11.018-24.561 24.562-24.561 13.542 0 24.56 11.018 24.56 24.562 0 13.541-11.018 24.56-24.56 24.56zm0-40.691c-8.896 0-16.132 7.235-16.132 16.132 0 8.893 7.236 16.13 16.132 16.13 8.894 0 16.13-7.237 16.13-16.13 0-8.897-7.236-16.132-16.13-16.132z"/><path d="M210.302 167.702a8.299 8.299 0 01-1.658-.168 10.616 10.616 0 01-1.576-.478 10.502 10.502 0 01-1.462-.787 8.726 8.726 0 01-1.264-1.04 8.47 8.47 0 01-2.473-5.957c0-.562.056-1.12.169-1.658s.255-1.067.477-1.573c.197-.509.481-.986.762-1.464.31-.45.674-.9 1.068-1.265 3.147-3.147 8.767-3.147 11.914 0 .394.366.73.815 1.04 1.265.306.478.562.955.784 1.464.225.506.368 1.037.48 1.573.11.534.169 1.096.169 1.658 0 2.22-.9 4.387-2.473 5.958-.396.393-.815.73-1.292 1.04-.45.308-.928.561-1.434.786-.508.194-1.04.365-1.576.478a8.484 8.484 0 01-1.655.168zM62.608 167.702c-2.22 0-4.411-.899-5.985-2.472-1.545-1.574-2.445-3.738-2.445-5.958s.9-4.383 2.445-5.957c1.967-1.967 4.861-2.866 7.615-2.301a6.231 6.231 0 011.574.478 6.941 6.941 0 011.461.758c.478.31.9.675 1.293 1.068 1.573 1.576 2.472 3.737 2.472 5.957s-.899 4.387-2.472 5.957c-.394.394-.815.731-1.293 1.04-.45.31-.955.562-1.461.787-.506.194-1.04.365-1.574.478s-1.096.165-1.63.165z"/><path d="M254.262 145.335l-1.133-15.674c-.688-9.495-8.028-17.347-17.456-18.667l-53.825-7.548-21.814-22.668c-5.437-5.648-13.053-8.891-20.892-8.891h-35.873c-5.971 0-10.827 4.856-10.827 10.827v20.49H13.077c-6.435 0-11.67 5.233-11.67 11.668v31.969c0 9.217 7.497 16.714 16.728 16.714l14.614-.048c-.196-1.39-.334-2.802-.334-4.246 0-16.643 13.539-30.182 30.182-30.182s30.18 13.539 30.18 30.182c0 1.433-.135 2.833-.33 4.215h88.004c-.194-1.382-.328-2.782-.328-4.215 0-16.643 13.538-30.182 30.179-30.182s30.18 13.539 30.18 30.182c0 1.369-.124 2.703-.301 4.024 3.641-.63 7.028-2.42 9.573-5.153a17.015 17.015 0 004.508-12.797zm-115.376-42.13c-4.316 0-7.832-3.513-7.832-7.832V80.32h8.09a20.658 20.658 0 0114.815 6.305l15.955 16.58h-31.028z"/></g></svg>