<svg xmlns="http://www.w3.org/2000/svg" width="256" height="256"><g stroke-width="0" stroke-miterlimit="10" fill="#000"><path d="M208.265 170.248c-11.906 0-21.595-9.686-21.595-21.592 0-11.906 9.686-21.595 21.595-21.595 11.903 0 21.592 9.686 21.592 21.595 0 11.906-9.686 21.592-21.592 21.592zm0-34.754c-7.258 0-13.165 5.907-13.165 13.165s5.907 13.162 13.165 13.162 13.162-5.904 13.162-13.162-5.904-13.165-13.162-13.165zM57.435 170.248c-11.906 0-21.592-9.686-21.592-21.592 0-11.906 9.686-21.595 21.592-21.595s21.592 9.686 21.592 21.595c0 11.906-9.686 21.592-21.592 21.592zm0-34.754c-7.258 0-13.162 5.907-13.162 13.165s5.904 13.162 13.162 13.162c7.258 0 13.162-5.904 13.162-13.162s-5.906-13.165-13.162-13.165z"/><path d="M208.248 155.673c-1.824 0-3.653-.73-4.946-2.049a5.359 5.359 0 01-.87-1.068 7.187 7.187 0 01-.647-1.21c-.194-.42-.306-.872-.419-1.321a7.587 7.587 0 01-.112-1.377c0-1.852.73-3.653 2.048-4.946 1.63-1.658 4.047-2.414 6.323-1.936.45.082.899.225 1.32.393.422.197.846.394 1.212.644.393.256.758.562 1.067.9 1.321 1.292 2.049 3.093 2.049 4.945 0 .45-.028.927-.14 1.377-.082.45-.225.899-.394 1.32a7.511 7.511 0 01-.646 1.211 5.263 5.263 0 01-.871 1.068c-1.29 1.321-3.117 2.049-4.974 2.049zM57.438 155.673c-1.855 0-3.681-.759-4.974-2.049s-2.051-3.119-2.051-4.976c0-1.852.759-3.653 2.051-4.974 2.614-2.613 7.334-2.613 9.948 0 1.292 1.32 2.051 3.12 2.051 4.974s-.759 3.656-2.051 4.976a7.159 7.159 0 01-4.974 2.049z"/><path d="M241.232 120.905l-65.662-13.292-23.129-13.42a64.692 64.692 0 00-32.421-8.725H90.42a74.605 74.605 0 00-34.703 8.598l-17.329 9.147a24.136 24.136 0 01-11.22 2.782h-6.927c-6.82 0-12.726 4.858-14.044 11.549l-4.614 23.45a9.368 9.368 0 006.887 10.888l25.017 6.348a25.632 25.632 0 01-1.86-9.568c0-14.23 11.577-25.81 25.807-25.81s25.807 11.577 25.807 25.81c0 4.139-1.003 8.04-2.742 11.51h104.7a25.605 25.605 0 01-2.742-11.51c0-14.23 11.577-25.81 25.81-25.81 14.227 0 25.807 11.577 25.807 25.81 0 3.819-.857 7.435-2.352 10.7l12.71-1.38a11.067 11.067 0 009.874-11.015v-10.07c0-7.734-5.5-14.458-13.075-15.992zm-169.528-8.102c-6.16 0-12.12-1.818-17.23-5.26l-2.74-1.843 7.921-4.182a66.136 66.136 0 0130.767-7.623h12.454l4.173 18.908H71.704zm79.661 0h-35.687l-4.173-18.908h8.512a56.244 56.244 0 0128.19 7.587l16.163 9.377a44.692 44.692 0 01-13.005 1.944z"/></g></svg>