<svg xmlns="http://www.w3.org/2000/svg" width="256" height="256"><g stroke-width="0" stroke-miterlimit="10" fill="#000"><path d="M211.342 172.859c-12.547 0-22.756-10.209-22.756-22.756s10.206-22.755 22.756-22.755c12.546 0 22.755 10.206 22.755 22.755s-10.209 22.756-22.755 22.756zm0-37.174c-7.95 0-14.416 6.469-14.416 14.416 0 7.952 6.469 14.418 14.416 14.418 7.952 0 14.418-6.469 14.418-14.418 0-7.947-6.466-14.416-14.418-14.416zM55.954 172.859c-12.546 0-22.755-10.209-22.755-22.756s10.209-22.755 22.755-22.755 22.756 10.206 22.756 22.755S68.5 172.86 55.954 172.86zm0-37.174c-7.95 0-14.418 6.469-14.418 14.416 0 7.952 6.469 14.418 14.418 14.418s14.418-6.469 14.418-14.418c0-7.947-6.465-14.416-14.418-14.416z"/><path d="M211.342 158.424c-2.226 0-4.336-.835-5.896-2.448-1.613-1.55-2.442-3.67-2.442-5.89 0-2.172.891-4.335 2.442-5.895 1.948-1.888 4.836-2.832 7.506-2.273a7.15 7.15 0 011.55.5c.507.222 1.004.444 1.45.776.445.278.892.612 1.277.997a8.429 8.429 0 012.447 5.896c0 2.22-.89 4.335-2.447 5.89-.776.834-1.667 1.39-2.726 1.834-.995.444-2.049.613-3.161.613zM55.96 158.435a8.166 8.166 0 01-5.893-2.5c-1.613-1.552-2.444-3.67-2.444-5.89 0-.5.053-1.06.165-1.614.113-.5.279-1.059.444-1.556.222-.5.5-.998.779-1.445.334-.444.669-.89 1.056-1.281 3.058-3.057 8.672-3.11 11.786 0 .387.39.722.835 1.056 1.281.278.444.556.944.722 1.445.222.5.388 1.059.5 1.556.113.554.169 1.113.169 1.613 0 2.22-.89 4.336-2.445 5.89a8.177 8.177 0 01-5.895 2.501z"/><path d="M231.947 118.342l-49.692-11.785L157 91.903a67.085 67.085 0 00-33.633-9.051H36.773c-5.94 0-11.62 2.832-15.193 7.578L6.318 110.704a24.598 24.598 0 00-4.911 14.694v17.804c0 4.662 3 8.694 7.471 10.032l20.33 6.075a28.15 28.15 0 01-1.564-9.206c0-15.61 12.7-28.313 28.313-28.313s28.314 12.701 28.314 28.313c0 4.283-.984 8.332-2.692 11.974h104.147c-1.709-3.642-2.692-7.691-2.692-11.974 0-15.61 12.701-28.313 28.313-28.313 15.613 0 28.317 12.701 28.317 28.313 0 3.797-.765 7.416-2.125 10.729l6.697-.925c5.738-.795 10.07-5.766 10.07-11.566v-1.72c0-13.53-9.194-25.157-22.359-28.28zm-172.694-6.247H37.65c-.674 0-1.012-.421-1.155-.671s-.332-.759.014-1.338L47.77 91.19h20.077l-8.593 20.906zm9.012 0l8.59-20.903h34.962l5.971 20.903H68.265zm90.159 0H126.46l-5.971-20.903h2.874a58.719 58.719 0 0129.446 7.924l18.501 10.734c-4.142 1.464-8.458 2.245-12.886 2.245z"/></g></svg>