<svg xmlns="http://www.w3.org/2000/svg" width="256" height="256"><g stroke-width="0" stroke-miterlimit="10" fill="#000"><path d="M212.424 184.206c-13.508 0-24.495-10.988-24.495-24.495s10.987-24.495 24.495-24.495 24.494 10.987 24.494 24.495-10.99 24.495-24.494 24.495zm0-40.56c-8.858 0-16.065 7.205-16.065 16.065s7.205 16.065 16.065 16.065 16.064-7.205 16.064-16.065-7.207-16.065-16.064-16.065zM51.978 184.206c-13.508 0-24.495-10.988-24.495-24.495s10.987-24.495 24.495-24.495 24.495 10.987 24.495 24.495-10.987 24.495-24.495 24.495zm0-40.56c-8.857 0-16.065 7.205-16.065 16.065s7.205 16.065 16.065 16.065 16.065-7.205 16.065-16.065-7.208-16.065-16.065-16.065z"/><path d="M212.41 168.152a8.47 8.47 0 01-5.958-2.473c-.365-.396-.73-.815-1.04-1.292a9.253 9.253 0 01-.786-1.464 10.481 10.481 0 01-.478-1.574c-.112-.534-.14-1.096-.14-1.63 0-.562.028-1.124.14-1.658.112-.534.284-1.068.478-1.576.225-.506.48-1.009.787-1.461.309-.45.646-.9 1.04-1.293 1.966-1.939 4.86-2.838 7.614-2.304.534.112 1.068.284 1.577.478.506.224 1.009.477 1.461.786s.9.675 1.293 1.04c.365.393.73.843 1.04 1.293s.561.955.758 1.46c.225.51.396 1.04.48 1.577.11.531.17 1.096.17 1.658a8.23 8.23 0 01-.17 1.63 6.392 6.392 0 01-.48 1.574 7.317 7.317 0 01-.762 1.464c-.309.477-.674.896-1.04 1.292-.393.394-.842.73-1.292 1.04-.45.306-.955.562-1.461.784-.509.197-1.04.368-1.576.48a8.246 8.246 0 01-1.656.169zM51.987 168.152a8.51 8.51 0 01-1.658-.169 10.175 10.175 0 01-1.574-.48 9.107 9.107 0 01-1.461-.784c-.45-.31-.9-.646-1.293-1.04-.365-.396-.73-.815-1.04-1.292a7.163 7.163 0 01-.758-1.464 6.348 6.348 0 01-.478-1.574 8.025 8.025 0 01-.168-1.63c0-2.22.899-4.412 2.444-5.985.394-.365.843-.73 1.293-1.04.45-.309.955-.562 1.461-.787.506-.194 1.04-.365 1.574-.477 2.725-.531 5.648.365 7.615 2.304 1.573 1.573 2.473 3.765 2.473 5.985s-.9 4.384-2.473 5.957a8.462 8.462 0 01-5.957 2.476z"/><path d="M254.189 148.044l-3.055-29.1c-.955-9.091-8.258-16.27-17.366-17.066l-52.755-4.622-16.632-18.605a21.442 21.442 0 00-15.97-7.146H38.91c-6 0-11.634 3.203-14.702 8.357L3.983 113.815a18.295 18.295 0 00-2.576 9.36v24.517c0 7.59 4.566 14.278 11.633 17.037l10.203 3.988a29.982 29.982 0 01-1.377-9.003c0-16.605 13.51-30.115 30.115-30.115 16.607 0 30.115 13.51 30.115 30.115 0 4.552-1.046 8.857-2.864 12.729h105.94c-1.818-3.872-2.863-8.177-2.863-12.73 0-16.604 13.51-30.114 30.115-30.114s30.114 13.51 30.114 30.115c0 3.785-.73 7.393-2.012 10.734 8.905-3.468 14.697-12.533 13.663-22.404zM39.755 109.476l14.792-29.541h17.34l-10.2 29.541H39.755zm30.85 0l10.201-29.541h29.201l7.087 29.541H70.606zm95.22-2.512a10.554 10.554 0 01-6.834 2.512h-33.228l-7.087-29.541h29.736c3.692 0 7.221 1.58 9.683 4.333l14.865 16.627-7.135 6.07z"/></g></svg>