<svg xmlns="http://www.w3.org/2000/svg" width="256" height="256"><g stroke-width="0" stroke-miterlimit="10" fill="#000"><path d="M206.61 174.593c-13 0-23.573-10.575-23.573-23.57s10.574-23.571 23.573-23.571c12.996 0 23.57 10.574 23.57 23.57s-10.574 23.57-23.57 23.57zm0-38.711c-8.352 0-15.143 6.792-15.143 15.14 0 8.349 6.791 15.14 15.143 15.14 8.348 0 15.14-6.791 15.14-15.14 0-8.348-6.792-15.14-15.14-15.14zM50.753 174.593c-12.996 0-23.57-10.575-23.57-23.57s10.574-23.571 23.57-23.571 23.57 10.574 23.57 23.57-10.574 23.57-23.57 23.57zm0-38.711c-8.349 0-15.14 6.792-15.14 15.14 0 8.349 6.791 15.14 15.14 15.14s15.14-6.791 15.14-15.14c-.003-8.348-6.794-15.14-15.14-15.14z"/><path d="M206.62 159.441c-.561 0-1.123-.059-1.66-.143a7.958 7.958 0 01-1.573-.506 7.311 7.311 0 01-1.464-.759 9.47 9.47 0 01-1.293-1.07 9.15 9.15 0 01-1.037-1.262 7.394 7.394 0 01-.761-1.464 7.899 7.899 0 01-.506-1.574c-.085-.534-.172-1.098-.172-1.658 0-.534.085-1.098.172-1.63a7.983 7.983 0 01.506-1.576c.196-.506.45-1.009.761-1.461.306-.478.672-.9 1.037-1.293 1.967-1.939 4.89-2.84 7.615-2.304.534.113 1.07.281 1.576.478.506.225 1.012.478 1.462.787.477.306.899.643 1.292 1.04.396.393.734.814 1.04 1.292.31.45.562.955.787 1.461.196.509.365 1.04.477 1.577.113.53.172 1.095.172 1.63 0 2.22-.9 4.408-2.476 5.954a7.792 7.792 0 01-1.292 1.07c-.447.307-.956.56-1.462.76a7.866 7.866 0 01-1.576.505 9.887 9.887 0 01-1.624.146zM50.75 159.441c-.534 0-1.096-.059-1.658-.143a7.899 7.899 0 01-1.573-.506 7 7 0 01-1.433-.759c-.478-.309-.9-.674-1.293-1.07-1.574-1.546-2.473-3.707-2.473-5.955 0-.534.056-1.099.169-1.63.112-.534.28-1.067.477-1.576a9.242 9.242 0 01.787-1.461c.31-.478.647-.9 1.04-1.293a7.486 7.486 0 011.293-1.04c.45-.309.927-.562 1.433-.786.505-.197 1.04-.366 1.573-.478a9.39 9.39 0 013.316 0c.534.112 1.068.281 1.574.478.505.224.983.477 1.46.786.45.307.872.644 1.265 1.04a8.52 8.52 0 012.473 5.957c0 .56-.056 1.122-.168 1.658-.113.531-.253 1.068-.478 1.574a7.432 7.432 0 01-.787 1.464 6.456 6.456 0 01-1.04 1.262 8.92 8.92 0 01-1.264 1.07c-.478.306-.956.56-1.461.759a7.899 7.899 0 01-1.574.506c-.562.087-1.096.143-1.658.143z"/><path d="M253.444 145.487c-7.275-17.751-23.618-30.259-42.653-32.639l-56.942-7.12c-10.88-9.405-25.085-17.588-42.307-24.318a4.216 4.216 0 00-3.069 7.851c14.028 5.483 25.872 11.934 35.375 19.204-5.97 1.956-12.29 2.891-18.504 2.731l-35.355-1.725a9.856 9.856 0 01-7.89-4.64L71.9 88.427a4.224 4.224 0 00-5.08-1.714c-10.288 3.917-19.291 9.303-26.864 15.94l-21.69 3.446c-5.581.888-10.125 5.198-11.302 10.723L1.659 141.73c-1.18 5.535 1.94 11.16 7.256 13.089l14.047 5.103a29.045 29.045 0 01-1.4-8.9c0-16.093 13.095-29.19 29.191-29.19s29.19 13.095 29.19 29.19c0 4.415-1.014 8.588-2.776 12.345h103.029c-1.762-3.755-2.777-7.927-2.777-12.345 0-16.093 13.095-29.19 29.193-29.19 16.093 0 29.19 13.095 29.19 29.19 0 4.024-.82 7.863-2.298 11.355l10.574-1.149a11.364 11.364 0 008.613-5.527 11.38 11.38 0 00.753-10.214z"/></g></svg>