<svg xmlns="http://www.w3.org/2000/svg" width="256" height="256"><g stroke-width="0" stroke-miterlimit="10" fill="#000"><path d="M214.52 188.828c-12.53 0-22.725-10.195-22.725-22.727 0-12.53 10.195-22.725 22.725-22.725s22.724 10.195 22.724 22.725c0 12.532-10.194 22.727-22.724 22.727zm0-37.022c-7.882 0-14.295 6.413-14.295 14.295 0 7.885 6.413 14.297 14.295 14.297s14.294-6.412 14.294-14.297c0-7.88-6.412-14.295-14.294-14.295zM57.458 188.828c-12.53 0-22.725-10.195-22.725-22.727 0-12.53 10.195-22.725 22.725-22.725s22.724 10.195 22.724 22.725c0 12.532-10.195 22.727-22.724 22.727zm0-37.022c-7.882 0-14.295 6.413-14.295 14.295 0 7.885 6.413 14.297 14.295 14.297s14.294-6.412 14.294-14.297c0-7.88-6.412-14.295-14.294-14.295z"/><path d="M214.517 174.528a8.025 8.025 0 01-1.63-.169 9.632 9.632 0 01-1.602-.477 7.118 7.118 0 01-1.433-.787c-.477-.281-.899-.644-1.292-1.04a8.47 8.47 0 01-2.473-5.957c0-2.22.9-4.384 2.473-5.955a8.515 8.515 0 011.264-1.04c.478-.308.956-.561 1.461-.786.51-.197 1.04-.365 1.577-.478 2.782-.562 5.676.337 7.615 2.304 1.574 1.574 2.473 3.735 2.473 5.955s-.9 4.386-2.473 5.957c-.399.396-.818.762-1.267 1.043-.478.309-.956.59-1.462.786-.508.197-1.04.366-1.576.478a8.267 8.267 0 01-1.655.166zM57.466 174.528c-.562 0-1.124-.056-1.658-.169s-1.068-.28-1.573-.477-1.012-.478-1.462-.787c-.45-.307-.899-.644-1.264-1.04a8.47 8.47 0 01-2.473-5.957c0-.531.056-1.096.169-1.658.084-.531.253-1.04.477-1.574.197-.505.45-.986.76-1.433.308-.477.673-.899 1.039-1.292.393-.397.843-.734 1.292-1.04.45-.31.956-.59 1.462-.787s1.04-.365 1.573-.478c2.726-.562 5.648.338 7.615 2.305 1.574 1.573 2.473 3.734 2.473 5.954s-.9 4.386-2.473 5.957a7.486 7.486 0 01-1.292 1.04c-.45.31-.928.59-1.462.787-.505.196-1.04.365-1.573.477s-1.096.172-1.63.172z"/><path d="M246.936 123.02l-27.274-12.566L192.52 77.8a30.174 30.174 0 00-23.264-10.914H16.296c-8.21 0-14.89 6.68-14.89 14.89v73.027c0 8.595 6.992 15.587 15.599 15.587l12.46-.04c-.211-1.388-.355-2.798-.355-4.245 0-15.63 12.716-28.345 28.345-28.345s28.344 12.715 28.344 28.345c0 1.435-.14 2.835-.348 4.215h101.07c-.208-1.38-.348-2.78-.348-4.215 0-15.63 12.715-28.345 28.344-28.345s28.344 12.715 28.344 28.345c0 1.455-.146 2.877-.356 4.274l1.798.01c5.516 0 10.004-4.487 10.004-10.003v-25.852a12.71 12.71 0 00-7.371-11.512zm-84.901-13.35a1.627 1.627 0 01-1.625-1.624v-32.73h8.844a21.768 21.768 0 0116.784 7.873l22.008 26.481h-46.011z"/></g></svg>